<?xml version="1.0" encoding="UTF-8" ?>
<!DOCTYPE svg PUBLIC "-//W3C//DTD SVG 1.1//EN" "http://www.w3.org/Graphics/SVG/1.1/DTD/svg11.dtd">
<svg width="124pt" height="127pt" viewBox="0 0 124 127" version="1.1" xmlns="http://www.w3.org/2000/svg">
    <g id="#010303ff">
        <path fill="#010303" opacity="1.00"
              d=" M 59.29 0.49 C 61.19 0.47 63.08 0.48 64.98 0.54 C 64.88 2.83 64.83 5.12 64.84 7.41 C 67.76 7.40 70.69 7.41 73.62 7.43 C 73.59 9.45 73.59 11.47 73.63 13.49 C 70.70 13.51 67.78 13.51 64.85 13.52 C 64.85 16.70 64.85 19.87 64.85 23.05 C 80.99 37.47 96.98 52.06 113.24 66.34 C 111.08 68.91 109.05 71.58 107.17 74.35 C 92.13 60.89 77.17 47.33 62.07 33.93 C 47.06 47.43 32.06 60.94 16.99 74.36 C 15.15 71.59 13.17 68.90 11.06 66.33 C 27.27 52.03 43.25 37.44 59.40 23.07 C 59.36 19.88 59.36 16.70 59.40 13.52 C 56.48 13.51 53.56 13.51 50.64 13.50 C 50.65 11.47 50.65 9.43 50.66 7.40 C 53.57 7.42 56.49 7.41 59.41 7.40 C 59.39 5.10 59.35 2.79 59.29 0.49 Z"/>
        <path fill="#010303" opacity="1.00"
              d=" M 26.74 72.07 C 38.48 61.36 50.36 50.81 62.07 40.08 C 73.92 50.69 85.67 61.42 97.51 72.05 C 97.49 90.16 97.46 108.27 97.53 126.38 C 89.76 126.41 81.99 126.43 74.22 126.37 C 74.35 118.59 74.28 110.81 74.28 103.03 C 74.23 96.52 68.82 89.99 62.01 90.22 C 55.30 90.11 50.11 96.52 49.98 102.91 C 49.90 110.73 49.86 118.55 50.03 126.36 C 42.26 126.44 34.50 126.40 26.73 126.38 C 26.76 108.28 26.73 90.17 26.74 72.07 Z"/>
        <path fill="#010303" opacity="1.00"
              d=" M 0.00 100.09 C 7.68 95.41 15.18 90.42 22.89 85.79 C 22.84 99.35 22.75 112.92 22.94 126.48 C 15.29 126.57 7.65 126.51 0.00 126.51 L 0.00 100.09 Z"/>
        <path fill="#010303" opacity="1.00"
              d=" M 101.36 85.74 C 108.91 90.48 116.43 95.26 124.00 99.97 L 124.00 126.51 C 116.44 126.53 108.87 126.55 101.31 126.50 C 101.45 112.92 101.37 99.33 101.36 85.74 Z"/>
    </g>
</svg>
