<?xml version="1.0" encoding="utf-8"?>
<!-- Generator: Adobe Illustrator 19.1.0, SVG Export Plug-In . SVG Version: 6.00 Build 0)  -->
<svg version="1.1" id="Objects" xmlns="http://www.w3.org/2000/svg" xmlns:xlink="http://www.w3.org/1999/xlink" x="0px" y="0px"
	 viewBox="0 0 115.3 60" style="enable-background:new 0 0 115.3 60;" xml:space="preserve">
<style type="text/css">
	.st0{fill:#000000;}
</style>
<path class="st0" d="M111.1,55.5h-7c0-22.9-16.6-42-38.5-45.8c0-0.4,0.1-0.7,0.1-1.1c0-4.7-3.3-8.6-7.3-8.6c-4.1,0-7.4,3.8-7.4,8.6
	c0,0.3,0,0.6,0,0.9C28.5,12.6,11.1,32,11.1,55.5h-7c-2.3,0-4.1,0.9-4.1,2.1V58C0,59.1,1.8,60,4.1,60h107c2.3,0,4.1-0.9,4.1-2.1v-0.4
	C115.3,56.5,113.4,55.5,111.1,55.5z M28.3,28.5c-9.1,10.5-13,27.1-13,27.1c0-21.3,15.8-39,36.3-41.9c0.1,0,0.1,0,0.1,0
	c0,0-0.1,0-0.1,0C50.2,14,36.9,18.5,28.3,28.5z"/>
</svg>
