<svg xmlns="http://www.w3.org/2000/svg" xmlns:xlink="http://www.w3.org/1999/xlink" version="1.1" x="0px" y="0px" viewBox="0 0 100 125" enable-background="new 0 0 100 100" xml:space="preserve"><g><path fill="#000000" d="M85.725,63.343c-0.194-0.173-0.412-0.366-0.651-0.603v-5.034c0-3.201-2.603-5.805-5.803-5.805h-7.289   h-0.335l-3.668-2.9l-3.667,2.9h-0.311v-5.453c0-0.185-0.01-0.372-0.03-0.564c1.09-1.003,1.723-2.422,1.723-3.917v-2.625   c0-2.939-2.391-5.331-5.33-5.331h-8.409c1.989-0.907,3.5-2.237,4.466-3.976c0.809-1.459,1.219-3.177,1.218-5.105   c0-4.88-3.523-8.421-8.379-8.421c-4.686,0-8.058,2.832-10.046,6.812c-1.989-3.979-5.361-6.812-10.047-6.812   c-4.854,0-8.378,3.542-8.378,8.42c-0.001,1.931,0.41,3.649,1.219,5.107c0.966,1.738,2.476,3.068,4.465,3.975h-8.41   c-2.939,0-5.331,2.391-5.331,5.331v2.625c0,1.495,0.634,2.914,1.724,3.917c-0.021,0.192-0.031,0.38-0.031,0.565v26.313   c0,3.071,2.391,5.569,5.33,5.569h28.936v2.802c0,3.197,1.761,4.958,4.958,4.958h28.664c3.197,0,4.958-1.761,4.958-4.958v-14.74   C87.269,64.717,86.519,64.049,85.725,63.343z M49.259,20.74c1.914,0,4.148,1.098,4.148,4.192c0.001,1.202-0.23,2.229-0.687,3.05   c-1.477,2.658-5.375,3.217-8.386,3.217c-1.111,0-2.133-0.078-2.938-0.167C41.949,23.975,45.729,20.74,49.259,20.74z M25.704,27.983   c-0.457-0.822-0.688-1.848-0.687-3.052c0-3.093,2.234-4.191,4.148-4.191c3.531,0,7.31,3.236,7.863,10.292   c-0.805,0.089-1.827,0.167-2.938,0.167C31.08,31.199,27.181,30.641,25.704,27.983z M65.075,54.101h5.808h1.099h7.289   c1.986,0,3.604,1.617,3.604,3.605v5.036h-0.026c0,1.773,0,2.25-2.271,3.546l-12.51,6.312l-12.563-6.339   c-1.812-0.906-2.188-2.356-2.212-4.833v-3.723c0-1.988,1.617-3.605,3.605-3.605h7.078H65.075z M63.494,39.342v2.625   c0,1.017-0.502,1.975-1.343,2.563l-0.061,0.042H43.866v-8.36h16.498C62.09,36.212,63.494,37.616,63.494,39.342z M14.93,39.342   c0-1.726,1.404-3.13,3.13-3.13h16.498v8.36H16.334l-0.061-0.042c-0.841-0.588-1.343-1.546-1.343-2.563V39.342z M16.623,72.762   V46.772h17.936v29.359H19.752C18.026,76.132,16.623,74.62,16.623,72.762z M48.688,66.393v9.739h-4.823V46.772h17.936v5.129h-4.904   c-3.201,0-5.805,2.604-5.805,5.805v3.474h-0.005c0,0.211,0.001,0.438,0.005,0.675v0.65c-0.25,0.231-0.477,0.425-0.68,0.599   C49.487,63.893,48.688,64.574,48.688,66.393z M85.069,81.133c0,1.985-0.773,2.759-2.759,2.759H53.646   c-1.984,0-2.758-0.773-2.758-2.759v-14.74c0-0.71,0.115-0.891,0.697-1.397c0.448,1.231,1.299,2.416,2.931,3.232l13.551,6.838   l13.55-6.84c1.801-1.026,2.655-1.902,3.062-2.857c0.328,0.323,0.39,0.507,0.39,1.024V81.133z"/><g><path fill="#000000" d="M71.09,67.4c-0.548,0.307-1.48,0.612-2.511,0.612c-1.578,0-3.026-0.644-3.928-1.835    c-0.434-0.546-0.756-1.238-0.9-2.093h-1.047v-1.143h0.886c0-0.08,0-0.176,0-0.272c0-0.161,0.016-0.322,0.016-0.482h-0.901v-1.143    h1.078c0.21-0.87,0.597-1.61,1.111-2.206c0.918-1.029,2.204-1.642,3.718-1.642c0.982,0,1.835,0.226,2.414,0.482l-0.45,1.835    c-0.418-0.176-1.079-0.386-1.786-0.386c-0.773,0-1.481,0.257-1.98,0.869c-0.226,0.258-0.402,0.627-0.515,1.047h4.007v1.143h-4.248    c-0.016,0.16-0.016,0.337-0.016,0.498c0,0.097,0,0.161,0,0.257h4.264v1.143h-4.039c0.113,0.483,0.29,0.854,0.531,1.127    c0.515,0.579,1.271,0.82,2.075,0.82c0.741,0,1.497-0.241,1.835-0.418L71.09,67.4z"/></g></g></svg>