<?xml version="1.0" encoding="UTF-8" ?>
<!DOCTYPE svg PUBLIC "-//W3C//DTD SVG 1.1//EN" "http://www.w3.org/Graphics/SVG/1.1/DTD/svg11.dtd">
<svg width="177pt" height="270pt" viewBox="0 0 177 270" version="1.1" xmlns="http://www.w3.org/2000/svg">
<g id="#1e211dff">
<path fill="#1e211d" opacity="1.00" d=" M 106.12 0.00 L 106.54 0.00 C 113.55 0.36 116.91 9.52 112.62 14.71 C 109.64 19.08 102.45 18.80 99.78 14.23 C 96.01 8.98 99.40 0.42 106.12 0.00 Z" />
<path fill="#1e211d" opacity="1.00" d=" M 37.47 25.64 C 41.24 23.63 45.83 27.07 45.79 31.12 C 46.24 35.10 42.18 39.10 38.20 37.63 C 33.05 36.02 32.65 27.94 37.47 25.64 Z" />
<path fill="#1e211d" opacity="1.00" d=" M 69.25 79.21 C 71.87 78.18 74.25 81.53 73.08 83.87 C 72.50 85.65 70.20 86.57 68.61 85.51 C 66.22 84.17 66.56 79.98 69.25 79.21 Z" />
<path fill="#1e211d" opacity="1.00" d=" M 134.38 103.22 C 135.31 103.06 137.15 102.72 138.07 102.55 C 147.97 115.59 156.30 130.44 158.56 146.87 C 159.08 152.59 157.16 158.27 154.06 163.03 C 149.98 169.47 144.10 174.58 140.29 181.22 C 138.77 183.88 137.56 186.91 137.86 190.03 C 139.15 207.30 143.43 224.20 148.30 240.77 C 149.86 245.01 150.74 250.58 155.44 252.50 C 160.89 254.68 166.92 253.42 172.47 252.29 C 173.97 251.76 175.36 252.65 176.72 253.18 C 167.37 258.66 156.65 261.00 146.42 264.26 C 139.17 266.39 131.86 268.61 124.27 269.06 C 125.79 265.29 130.27 265.14 133.35 263.30 C 138.13 260.81 143.91 257.13 143.85 251.06 C 143.53 244.22 141.67 237.58 140.19 230.93 C 137.27 219.27 134.08 207.61 129.39 196.52 C 127.96 193.51 126.76 190.04 123.80 188.18 C 115.36 182.41 104.30 182.17 96.20 175.79 C 91.76 172.45 89.17 167.23 87.99 161.90 C 83.92 147.70 84.84 132.68 86.44 118.17 C 87.57 117.65 88.71 117.15 89.87 116.70 C 90.23 130.33 86.70 144.23 90.55 157.65 C 92.72 166.13 98.52 174.08 107.03 176.98 C 124.06 182.82 145.46 174.14 152.37 157.23 C 155.55 149.11 154.36 139.96 151.16 132.04 C 147.05 121.63 139.71 112.98 134.38 103.22 Z" />
<path fill="#1e211d" opacity="1.00" d=" M 22.41 104.00 C 23.65 104.03 24.88 104.06 26.12 104.11 C 21.96 114.84 15.29 124.55 12.47 135.81 C 9.74 145.73 10.69 157.38 17.74 165.36 C 28.92 177.80 49.20 181.40 63.62 172.57 C 71.90 167.41 75.65 157.45 76.18 148.08 C 76.83 135.80 73.10 123.89 71.63 111.80 C 72.83 112.24 75.12 111.62 75.41 113.38 C 79.50 129.09 81.48 145.83 77.61 161.79 C 75.87 168.14 70.97 173.15 65.33 176.27 C 58.58 180.18 50.71 182.45 45.06 188.06 C 42.01 191.96 41.13 197.05 39.81 201.72 C 36.33 216.59 34.00 231.74 32.87 246.98 C 32.64 250.38 32.56 254.25 34.96 256.98 C 39.08 261.74 45.51 263.29 51.34 264.88 C 52.77 265.16 53.51 266.50 54.44 267.48 C 43.84 268.18 33.40 265.76 22.99 264.19 C 15.42 262.85 7.70 261.71 0.61 258.62 C 1.69 258.11 2.64 257.00 3.94 257.15 C 9.53 257.45 15.46 258.03 20.72 255.64 C 23.19 254.52 25.02 252.28 25.73 249.68 C 27.40 244.09 28.20 238.29 29.17 232.54 C 30.82 220.77 32.25 208.92 32.38 197.01 C 32.28 192.64 32.61 187.84 30.01 184.06 C 24.19 175.03 13.77 169.75 9.15 159.83 C 6.89 155.55 7.01 150.59 7.30 145.90 C 8.62 130.90 14.94 116.89 22.41 104.00 Z" />
<path fill="#1e211d" opacity="1.00" d=" M 138.97 138.82 C 142.86 137.91 146.51 136.27 150.07 134.50 C 151.94 140.36 152.93 146.73 150.91 152.70 C 147.56 163.58 137.42 170.98 126.82 173.98 C 119.71 175.90 111.56 177.02 104.92 173.06 C 96.49 168.34 92.37 158.37 92.55 149.01 C 95.70 146.87 99.02 144.94 102.67 143.81 C 114.42 139.96 127.08 141.90 138.97 138.82 Z" />
<path fill="#1e211d" opacity="1.00" d=" M 13.95 137.30 C 22.53 140.61 31.87 140.97 40.93 140.14 C 51.59 139.27 63.10 138.58 72.68 144.21 C 73.72 153.21 71.23 163.09 63.98 168.99 C 57.57 174.58 48.42 174.57 40.48 173.29 C 30.14 171.54 19.76 165.66 15.34 155.77 C 12.56 150.02 12.93 143.43 13.95 137.30 Z" />
</g>
</svg>
