<?xml version="1.0" encoding="UTF-8" ?>
<!DOCTYPE svg PUBLIC "-//W3C//DTD SVG 1.1//EN" "http://www.w3.org/Graphics/SVG/1.1/DTD/svg11.dtd">
<svg width="94pt" height="130pt" viewBox="0 0 94 130" version="1.1" xmlns="http://www.w3.org/2000/svg">
<g id="#010303ff">
<path fill="#010303" opacity="1.00" d=" M 46.97 0.00 L 47.41 0.00 C 62.81 12.69 78.49 25.06 94.00 37.62 L 94.00 37.74 C 92.76 39.53 91.45 41.26 90.16 43.01 C 75.79 31.52 61.52 19.90 47.13 8.44 C 32.65 19.77 18.26 31.22 3.80 42.57 C 2.53 40.81 1.22 39.08 0.00 37.30 L 0.00 37.16 C 15.64 24.76 31.41 12.51 46.97 0.00 Z" />
<path fill="#010303" opacity="1.00" d=" M 11.63 42.88 C 23.39 33.52 35.19 24.21 47.00 14.90 C 58.80 24.20 70.60 33.52 82.37 42.88 C 82.39 68.16 82.36 93.45 82.38 118.74 C 85.33 118.74 88.28 118.75 91.24 118.76 C 91.26 122.51 91.25 126.25 91.25 130.00 L 3.31 130.00 C 3.32 126.25 3.30 122.50 3.30 118.76 C 6.08 118.76 8.85 118.74 11.62 118.74 C 11.64 93.45 11.61 68.17 11.63 42.88 M 20.77 50.26 C 20.74 57.75 20.74 65.24 20.77 72.74 C 28.36 72.72 35.95 72.83 43.53 72.68 C 43.48 65.23 43.47 57.78 43.54 50.33 C 35.95 50.16 28.36 50.29 20.77 50.26 M 51.00 50.01 C 51.00 57.50 51.00 65.00 51.01 72.49 C 58.58 72.53 66.15 72.44 73.72 72.54 C 73.79 65.03 73.73 57.52 73.75 50.01 C 66.17 49.99 58.59 50.00 51.00 50.01 M 20.76 81.89 C 20.74 94.09 20.75 106.30 20.76 118.50 C 28.34 118.52 35.91 118.52 43.49 118.51 C 43.50 106.30 43.51 94.09 43.49 81.89 C 35.91 81.87 28.34 81.87 20.76 81.89 M 51.20 81.91 C 51.18 89.39 51.18 96.88 51.20 104.36 C 58.77 104.38 66.35 104.38 73.93 104.37 C 73.94 96.87 73.95 89.38 73.93 81.89 C 66.35 81.89 58.77 81.84 51.20 81.91 Z" />
</g>
</svg>
